<?xml version="1.0" encoding="utf-8"?>
<!-- Generator: Adobe Illustrator 26.5.1, SVG Export Plug-In . SVG Version: 6.00 Build 0)  -->
<svg version="1.1" id="Capa_1" xmlns="http://www.w3.org/2000/svg" xmlns:xlink="http://www.w3.org/1999/xlink" x="0px" y="0px"
	 viewBox="0 0 1920 1080" style="enable-background:new 0 0 1920 1080;" xml:space="preserve">
<style type="text/css">
	.st0{fill:#3EFFFF;}
</style>
<g>
	<path class="st0" d="M1577.1,614.5L1537,466.1c-0.1-0.4-0.5-0.8-1-0.8h-44.4c-0.4,0-0.7,0.2-0.9,0.5l-91.1,148.3
		c-0.4,0.7,0.1,1.5,0.9,1.5h87.1c0.5,0,0.8-0.4,0.8-0.8l0.2-38.5h-21.7c-0.8,0-1.3-0.9-0.9-1.6l38.6-62c0.6-0.9,1.9-0.5,1.9,0.6
		l-0.2,39.4h21.7c0.8,0,1.3,0.9,0.9,1.6l-37.5,60.3c-0.3,0.5,0,1.2,0.7,1.2h84.1C1576.8,615.8,1577.3,615.1,1577.1,614.5z"/>
	<path class="st0" d="M778.3,466.1c-0.1-0.4-0.5-0.8-1-0.8h-44.4c-0.4,0-0.7,0.2-0.9,0.5l-91,148.3c-0.4,0.7,0.1,1.5,0.9,1.5
		l109,0.1c0.4,0,0.7-0.2,0.8-0.6l10-27.4c0.4-1.1,2-1,2.3,0.2c1.3,6,3.7,17.8,5.6,27.1c0.1,0.4,0.4,0.7,0.8,0.7h47.2
		c0.7,0,1.2-0.6,1-1.3L778.3,466.1z M760.4,577.4h-51.6c-0.8,0-1.3-0.9-0.8-1.6l39.6-58.4c0.5-0.7,1.7-0.5,1.8,0.4l12,58.4
		C761.5,576.8,761,577.4,760.4,577.4z"/>
	<path class="st0" d="M1429.3,465.1h-42.9c-0.4,0-0.8,0.3-1,0.7l-29.9,94.8c-0.3,0.9-1.6,1-1.9,0.1l-36.1-95.5h-0.4v-0.1h-44.3
		c-0.4,0-0.8,0.3-1,0.7L1225,614.4c-0.2,0.7,0.3,1.3,1,1.3h42.9c0.4,0,0.8-0.3,1-0.7l26-82.6c0.3-0.9,1.6-1,1.9-0.1l31.4,82.8
		c0.1,0.4,0.5,0.7,1,0.7l52.4-0.1c0.4,0,0.8-0.3,1-0.7l46.8-148.6C1430.4,465.7,1429.9,465.1,1429.3,465.1z"/>
	<path class="st0" d="M1081.3,465.3h-51.6c-0.3,0-0.6,0.1-0.8,0.4l-79.8,93.7c-0.5,0.6-1.5,0.4-1.8-0.4l-25.7-93.7h-0.1l0.1-0.2
		h-44.3c-0.4,0-0.8,0.3-1,0.7l-46.8,148.6c-0.2,0.7,0.3,1.3,1,1.3h42.9c0.4,0,0.8-0.3,1-0.7l24.7-78.8c0.3-1,1.7-0.9,2,0.1
		l18.3,78.7c0.1,0.5,0.5,0.8,1,0.8h23.2c0.3,0,0.6-0.1,0.8-0.4l69-80.2c0.7-0.8,2.1-0.1,1.7,1l-24.5,78.1c-0.2,0.7,0.3,1.3,1,1.3
		h42.9c0.4,0,0.8-0.3,1-0.7l46.8-148.3C1082.4,466,1081.9,465.3,1081.3,465.3z"/>
	<path class="st0" d="M683.5,502.9l11.2-36.3c0.2-0.7-0.3-1.3-1-1.3H544.2c-0.4,0-0.8,0.3-1,0.7l-11.5,36.3c-0.2,0.7,0.3,1.3,1,1.3
		h50.6c0.7,0,1.2,0.7,1,1.3l-34.5,109.4c-0.2,0.7,0.3,1.3,1,1.3h42.9c0.4,0,0.8-0.3,1-0.7l34.9-110.6c0.1-0.4,0.5-0.7,1-0.7h52.1
		C682.9,503.6,683.3,503.3,683.5,502.9z"/>
	<path class="st0" d="M1205.9,577.4h-39c-0.7,0-1.2-0.7-1-1.3l22.6-71.7c0.1-0.4,0.5-0.7,1-0.7h41.6c0.4,0,0.8-0.3,1-0.7l11.5-36.3
		c0.2-0.7-0.3-1.3-1-1.3h-130.4c-0.4,0-0.8,0.3-1,0.7l-11.6,36.3c-0.2,0.7,0.3,1.3,1,1.3h41.7c0.7,0,1.2,0.7,1,1.3l-22.6,71.7
		c-0.1,0.4-0.5,0.7-1,0.7H1077c-0.5,0-0.9,0.3-1,0.7l-10.5,36.3c-0.2,0.7,0.3,1.3,1,1.3h128.8c0.5,0,0.9-0.3,1-0.7l10.5-36.3
		C1207,578.1,1206.5,577.4,1205.9,577.4z"/>
	<path class="st0" d="M520.9,465.3H404.3c-25.6,0-46.3,20.7-46.3,46.3l0,0c0,25.6,20.7,46.3,46.3,46.3h37c5.4,0,9.7,4.4,9.7,9.7
		s-4.4,9.7-9.7,9.7h-86.8c-0.4,0-0.8,0.3-1,0.7l-11.4,36.3c-0.2,0.7,0.3,1.3,1,1.3h112.2c25.6,0,46.3-20.7,46.3-46.3l0,0
		c0-25.6-20.7-46.3-46.3-46.3h-37.1c-5.4,0-9.7-4.4-9.7-9.7c0-5.4,4.4-9.7,9.7-9.7h91.1c0.4,0,0.8-0.3,1-0.7l11.5-36.3
		C522.1,466,521.6,465.3,520.9,465.3z"/>
</g>
</svg>
